<mxfile host="app.diagrams.net" agent="Mozilla/5.0 (Windows NT 10.0; Win64; x64) AppleWebKit/537.36 (KHTML, like Gecko) Chrome/131.0.0.0 Safari/537.36" version="25.0.3">
  <diagram name="หน้า-1" id="GQAA-UT3_zsxXD-1APyV">
    <mxGraphModel dx="1034" dy="446" grid="1" gridSize="10" guides="1" tooltips="1" connect="1" arrows="1" fold="1" page="1" pageScale="1" pageWidth="827" pageHeight="1169" math="0" shadow="0">
      <root>
        <mxCell id="0" />
        <mxCell id="1" parent="0" />
        <mxCell id="1763DktBf14fpHDiQ_p1-3" value="" style="edgeStyle=orthogonalEdgeStyle;rounded=0;orthogonalLoop=1;jettySize=auto;html=1;" edge="1" parent="1" source="1763DktBf14fpHDiQ_p1-1" target="1763DktBf14fpHDiQ_p1-2">
          <mxGeometry relative="1" as="geometry" />
        </mxCell>
        <mxCell id="1763DktBf14fpHDiQ_p1-1" value="start" style="strokeWidth=2;html=1;shape=mxgraph.flowchart.start_1;whiteSpace=wrap;" vertex="1" parent="1">
          <mxGeometry x="364" y="90" width="100" height="60" as="geometry" />
        </mxCell>
        <mxCell id="1763DktBf14fpHDiQ_p1-5" value="" style="edgeStyle=orthogonalEdgeStyle;rounded=0;orthogonalLoop=1;jettySize=auto;html=1;" edge="1" parent="1" source="1763DktBf14fpHDiQ_p1-2" target="1763DktBf14fpHDiQ_p1-4">
          <mxGeometry relative="1" as="geometry" />
        </mxCell>
        <mxCell id="1763DktBf14fpHDiQ_p1-2" value="สร้างตัวแปร num" style="whiteSpace=wrap;html=1;strokeWidth=2;" vertex="1" parent="1">
          <mxGeometry x="354" y="230" width="120" height="60" as="geometry" />
        </mxCell>
        <mxCell id="1763DktBf14fpHDiQ_p1-9" value="" style="edgeStyle=orthogonalEdgeStyle;rounded=0;orthogonalLoop=1;jettySize=auto;html=1;" edge="1" parent="1" source="1763DktBf14fpHDiQ_p1-4" target="1763DktBf14fpHDiQ_p1-8">
          <mxGeometry relative="1" as="geometry" />
        </mxCell>
        <mxCell id="1763DktBf14fpHDiQ_p1-4" value="แสดง User input" style="shape=parallelogram;perimeter=parallelogramPerimeter;whiteSpace=wrap;html=1;fixedSize=1;strokeWidth=2;" vertex="1" parent="1">
          <mxGeometry x="354" y="370" width="120" height="60" as="geometry" />
        </mxCell>
        <mxCell id="1763DktBf14fpHDiQ_p1-11" value="" style="edgeStyle=orthogonalEdgeStyle;rounded=0;orthogonalLoop=1;jettySize=auto;html=1;" edge="1" parent="1" source="1763DktBf14fpHDiQ_p1-8" target="1763DktBf14fpHDiQ_p1-10">
          <mxGeometry relative="1" as="geometry" />
        </mxCell>
        <mxCell id="1763DktBf14fpHDiQ_p1-8" value="รับค่าจากผู้ใช้" style="whiteSpace=wrap;html=1;strokeWidth=2;" vertex="1" parent="1">
          <mxGeometry x="354" y="510" width="120" height="60" as="geometry" />
        </mxCell>
        <mxCell id="1763DktBf14fpHDiQ_p1-14" value="" style="edgeStyle=orthogonalEdgeStyle;rounded=0;orthogonalLoop=1;jettySize=auto;html=1;" edge="1" parent="1" source="1763DktBf14fpHDiQ_p1-10" target="1763DktBf14fpHDiQ_p1-13">
          <mxGeometry relative="1" as="geometry" />
        </mxCell>
        <mxCell id="1763DktBf14fpHDiQ_p1-76" value="" style="edgeStyle=orthogonalEdgeStyle;rounded=0;orthogonalLoop=1;jettySize=auto;html=1;" edge="1" parent="1" source="1763DktBf14fpHDiQ_p1-10" target="1763DktBf14fpHDiQ_p1-75">
          <mxGeometry relative="1" as="geometry" />
        </mxCell>
        <mxCell id="1763DktBf14fpHDiQ_p1-10" value="case 1?" style="rhombus;whiteSpace=wrap;html=1;strokeWidth=2;" vertex="1" parent="1">
          <mxGeometry x="374" y="640" width="80" height="80" as="geometry" />
        </mxCell>
        <mxCell id="1763DktBf14fpHDiQ_p1-16" value="" style="edgeStyle=orthogonalEdgeStyle;rounded=0;orthogonalLoop=1;jettySize=auto;html=1;" edge="1" parent="1" source="1763DktBf14fpHDiQ_p1-13" target="1763DktBf14fpHDiQ_p1-15">
          <mxGeometry relative="1" as="geometry" />
        </mxCell>
        <mxCell id="1763DktBf14fpHDiQ_p1-107" value="" style="edgeStyle=orthogonalEdgeStyle;rounded=0;orthogonalLoop=1;jettySize=auto;html=1;" edge="1" parent="1" source="1763DktBf14fpHDiQ_p1-13" target="1763DktBf14fpHDiQ_p1-77">
          <mxGeometry relative="1" as="geometry" />
        </mxCell>
        <mxCell id="1763DktBf14fpHDiQ_p1-13" value="case 2?" style="rhombus;whiteSpace=wrap;html=1;strokeWidth=2;" vertex="1" parent="1">
          <mxGeometry x="374" y="800" width="80" height="80" as="geometry" />
        </mxCell>
        <mxCell id="1763DktBf14fpHDiQ_p1-18" value="" style="edgeStyle=orthogonalEdgeStyle;rounded=0;orthogonalLoop=1;jettySize=auto;html=1;" edge="1" parent="1" source="1763DktBf14fpHDiQ_p1-15" target="1763DktBf14fpHDiQ_p1-17">
          <mxGeometry relative="1" as="geometry" />
        </mxCell>
        <mxCell id="1763DktBf14fpHDiQ_p1-108" value="" style="edgeStyle=orthogonalEdgeStyle;rounded=0;orthogonalLoop=1;jettySize=auto;html=1;" edge="1" parent="1" source="1763DktBf14fpHDiQ_p1-15" target="1763DktBf14fpHDiQ_p1-78">
          <mxGeometry relative="1" as="geometry" />
        </mxCell>
        <mxCell id="1763DktBf14fpHDiQ_p1-15" value="case 3?" style="rhombus;whiteSpace=wrap;html=1;strokeWidth=2;" vertex="1" parent="1">
          <mxGeometry x="374" y="960" width="80" height="80" as="geometry" />
        </mxCell>
        <mxCell id="1763DktBf14fpHDiQ_p1-20" value="" style="edgeStyle=orthogonalEdgeStyle;rounded=0;orthogonalLoop=1;jettySize=auto;html=1;" edge="1" parent="1" source="1763DktBf14fpHDiQ_p1-17" target="1763DktBf14fpHDiQ_p1-19">
          <mxGeometry relative="1" as="geometry" />
        </mxCell>
        <mxCell id="1763DktBf14fpHDiQ_p1-109" value="" style="edgeStyle=orthogonalEdgeStyle;rounded=0;orthogonalLoop=1;jettySize=auto;html=1;" edge="1" parent="1" source="1763DktBf14fpHDiQ_p1-17" target="1763DktBf14fpHDiQ_p1-79">
          <mxGeometry relative="1" as="geometry" />
        </mxCell>
        <mxCell id="1763DktBf14fpHDiQ_p1-17" value="case 4?" style="rhombus;whiteSpace=wrap;html=1;strokeWidth=2;" vertex="1" parent="1">
          <mxGeometry x="374" y="1120" width="80" height="80" as="geometry" />
        </mxCell>
        <mxCell id="1763DktBf14fpHDiQ_p1-22" value="" style="edgeStyle=orthogonalEdgeStyle;rounded=0;orthogonalLoop=1;jettySize=auto;html=1;" edge="1" parent="1" source="1763DktBf14fpHDiQ_p1-19" target="1763DktBf14fpHDiQ_p1-21">
          <mxGeometry relative="1" as="geometry" />
        </mxCell>
        <mxCell id="1763DktBf14fpHDiQ_p1-110" value="" style="edgeStyle=orthogonalEdgeStyle;rounded=0;orthogonalLoop=1;jettySize=auto;html=1;" edge="1" parent="1" source="1763DktBf14fpHDiQ_p1-19" target="1763DktBf14fpHDiQ_p1-80">
          <mxGeometry relative="1" as="geometry" />
        </mxCell>
        <mxCell id="1763DktBf14fpHDiQ_p1-19" value="case 5?" style="rhombus;whiteSpace=wrap;html=1;strokeWidth=2;" vertex="1" parent="1">
          <mxGeometry x="374" y="1280" width="80" height="80" as="geometry" />
        </mxCell>
        <mxCell id="1763DktBf14fpHDiQ_p1-24" value="" style="edgeStyle=orthogonalEdgeStyle;rounded=0;orthogonalLoop=1;jettySize=auto;html=1;" edge="1" parent="1" source="1763DktBf14fpHDiQ_p1-21" target="1763DktBf14fpHDiQ_p1-23">
          <mxGeometry relative="1" as="geometry" />
        </mxCell>
        <mxCell id="1763DktBf14fpHDiQ_p1-111" value="" style="edgeStyle=orthogonalEdgeStyle;rounded=0;orthogonalLoop=1;jettySize=auto;html=1;" edge="1" parent="1" source="1763DktBf14fpHDiQ_p1-21" target="1763DktBf14fpHDiQ_p1-84">
          <mxGeometry relative="1" as="geometry" />
        </mxCell>
        <mxCell id="1763DktBf14fpHDiQ_p1-21" value="case 6?" style="rhombus;whiteSpace=wrap;html=1;strokeWidth=2;" vertex="1" parent="1">
          <mxGeometry x="374" y="1440" width="80" height="80" as="geometry" />
        </mxCell>
        <mxCell id="1763DktBf14fpHDiQ_p1-26" value="" style="edgeStyle=orthogonalEdgeStyle;rounded=0;orthogonalLoop=1;jettySize=auto;html=1;" edge="1" parent="1" source="1763DktBf14fpHDiQ_p1-23" target="1763DktBf14fpHDiQ_p1-25">
          <mxGeometry relative="1" as="geometry" />
        </mxCell>
        <mxCell id="1763DktBf14fpHDiQ_p1-112" value="" style="edgeStyle=orthogonalEdgeStyle;rounded=0;orthogonalLoop=1;jettySize=auto;html=1;" edge="1" parent="1" source="1763DktBf14fpHDiQ_p1-23" target="1763DktBf14fpHDiQ_p1-83">
          <mxGeometry relative="1" as="geometry" />
        </mxCell>
        <mxCell id="1763DktBf14fpHDiQ_p1-23" value="case 7?" style="rhombus;whiteSpace=wrap;html=1;strokeWidth=2;" vertex="1" parent="1">
          <mxGeometry x="374" y="1600" width="80" height="80" as="geometry" />
        </mxCell>
        <mxCell id="1763DktBf14fpHDiQ_p1-28" value="" style="edgeStyle=orthogonalEdgeStyle;rounded=0;orthogonalLoop=1;jettySize=auto;html=1;" edge="1" parent="1" source="1763DktBf14fpHDiQ_p1-25" target="1763DktBf14fpHDiQ_p1-27">
          <mxGeometry relative="1" as="geometry" />
        </mxCell>
        <mxCell id="1763DktBf14fpHDiQ_p1-113" value="" style="edgeStyle=orthogonalEdgeStyle;rounded=0;orthogonalLoop=1;jettySize=auto;html=1;" edge="1" parent="1" source="1763DktBf14fpHDiQ_p1-25" target="1763DktBf14fpHDiQ_p1-82">
          <mxGeometry relative="1" as="geometry" />
        </mxCell>
        <mxCell id="1763DktBf14fpHDiQ_p1-25" value="case 8?" style="rhombus;whiteSpace=wrap;html=1;strokeWidth=2;" vertex="1" parent="1">
          <mxGeometry x="374" y="1760" width="80" height="80" as="geometry" />
        </mxCell>
        <mxCell id="1763DktBf14fpHDiQ_p1-30" value="" style="edgeStyle=orthogonalEdgeStyle;rounded=0;orthogonalLoop=1;jettySize=auto;html=1;" edge="1" parent="1" source="1763DktBf14fpHDiQ_p1-27" target="1763DktBf14fpHDiQ_p1-29">
          <mxGeometry relative="1" as="geometry" />
        </mxCell>
        <mxCell id="1763DktBf14fpHDiQ_p1-114" value="" style="edgeStyle=orthogonalEdgeStyle;rounded=0;orthogonalLoop=1;jettySize=auto;html=1;" edge="1" parent="1" source="1763DktBf14fpHDiQ_p1-27" target="1763DktBf14fpHDiQ_p1-81">
          <mxGeometry relative="1" as="geometry" />
        </mxCell>
        <mxCell id="1763DktBf14fpHDiQ_p1-27" value="case 9?" style="rhombus;whiteSpace=wrap;html=1;strokeWidth=2;" vertex="1" parent="1">
          <mxGeometry x="374" y="1920" width="80" height="80" as="geometry" />
        </mxCell>
        <mxCell id="1763DktBf14fpHDiQ_p1-32" value="" style="edgeStyle=orthogonalEdgeStyle;rounded=0;orthogonalLoop=1;jettySize=auto;html=1;" edge="1" parent="1" source="1763DktBf14fpHDiQ_p1-29" target="1763DktBf14fpHDiQ_p1-31">
          <mxGeometry relative="1" as="geometry" />
        </mxCell>
        <mxCell id="1763DktBf14fpHDiQ_p1-115" value="" style="edgeStyle=orthogonalEdgeStyle;rounded=0;orthogonalLoop=1;jettySize=auto;html=1;" edge="1" parent="1" source="1763DktBf14fpHDiQ_p1-29" target="1763DktBf14fpHDiQ_p1-85">
          <mxGeometry relative="1" as="geometry" />
        </mxCell>
        <mxCell id="1763DktBf14fpHDiQ_p1-29" value="case 10?" style="rhombus;whiteSpace=wrap;html=1;strokeWidth=2;" vertex="1" parent="1">
          <mxGeometry x="374" y="2080" width="80" height="80" as="geometry" />
        </mxCell>
        <mxCell id="1763DktBf14fpHDiQ_p1-34" value="" style="edgeStyle=orthogonalEdgeStyle;rounded=0;orthogonalLoop=1;jettySize=auto;html=1;" edge="1" parent="1" source="1763DktBf14fpHDiQ_p1-31" target="1763DktBf14fpHDiQ_p1-33">
          <mxGeometry relative="1" as="geometry" />
        </mxCell>
        <mxCell id="1763DktBf14fpHDiQ_p1-116" value="" style="edgeStyle=orthogonalEdgeStyle;rounded=0;orthogonalLoop=1;jettySize=auto;html=1;" edge="1" parent="1" source="1763DktBf14fpHDiQ_p1-31" target="1763DktBf14fpHDiQ_p1-86">
          <mxGeometry relative="1" as="geometry" />
        </mxCell>
        <mxCell id="1763DktBf14fpHDiQ_p1-31" value="case 11?" style="rhombus;whiteSpace=wrap;html=1;strokeWidth=2;" vertex="1" parent="1">
          <mxGeometry x="374" y="2240" width="80" height="80" as="geometry" />
        </mxCell>
        <mxCell id="1763DktBf14fpHDiQ_p1-36" value="" style="edgeStyle=orthogonalEdgeStyle;rounded=0;orthogonalLoop=1;jettySize=auto;html=1;" edge="1" parent="1" source="1763DktBf14fpHDiQ_p1-33" target="1763DktBf14fpHDiQ_p1-35">
          <mxGeometry relative="1" as="geometry" />
        </mxCell>
        <mxCell id="1763DktBf14fpHDiQ_p1-117" value="" style="edgeStyle=orthogonalEdgeStyle;rounded=0;orthogonalLoop=1;jettySize=auto;html=1;" edge="1" parent="1" source="1763DktBf14fpHDiQ_p1-33" target="1763DktBf14fpHDiQ_p1-87">
          <mxGeometry relative="1" as="geometry" />
        </mxCell>
        <mxCell id="1763DktBf14fpHDiQ_p1-33" value="case 12?" style="rhombus;whiteSpace=wrap;html=1;strokeWidth=2;" vertex="1" parent="1">
          <mxGeometry x="374" y="2400" width="80" height="80" as="geometry" />
        </mxCell>
        <mxCell id="1763DktBf14fpHDiQ_p1-38" value="" style="edgeStyle=orthogonalEdgeStyle;rounded=0;orthogonalLoop=1;jettySize=auto;html=1;" edge="1" parent="1" source="1763DktBf14fpHDiQ_p1-35" target="1763DktBf14fpHDiQ_p1-37">
          <mxGeometry relative="1" as="geometry" />
        </mxCell>
        <mxCell id="1763DktBf14fpHDiQ_p1-118" value="" style="edgeStyle=orthogonalEdgeStyle;rounded=0;orthogonalLoop=1;jettySize=auto;html=1;" edge="1" parent="1" source="1763DktBf14fpHDiQ_p1-35" target="1763DktBf14fpHDiQ_p1-88">
          <mxGeometry relative="1" as="geometry" />
        </mxCell>
        <mxCell id="1763DktBf14fpHDiQ_p1-35" value="case 13?" style="rhombus;whiteSpace=wrap;html=1;strokeWidth=2;" vertex="1" parent="1">
          <mxGeometry x="374" y="2560" width="80" height="80" as="geometry" />
        </mxCell>
        <mxCell id="1763DktBf14fpHDiQ_p1-40" value="" style="edgeStyle=orthogonalEdgeStyle;rounded=0;orthogonalLoop=1;jettySize=auto;html=1;" edge="1" parent="1" source="1763DktBf14fpHDiQ_p1-37" target="1763DktBf14fpHDiQ_p1-39">
          <mxGeometry relative="1" as="geometry" />
        </mxCell>
        <mxCell id="1763DktBf14fpHDiQ_p1-119" value="" style="edgeStyle=orthogonalEdgeStyle;rounded=0;orthogonalLoop=1;jettySize=auto;html=1;" edge="1" parent="1" source="1763DktBf14fpHDiQ_p1-37" target="1763DktBf14fpHDiQ_p1-89">
          <mxGeometry relative="1" as="geometry" />
        </mxCell>
        <mxCell id="1763DktBf14fpHDiQ_p1-37" value="case 14?" style="rhombus;whiteSpace=wrap;html=1;strokeWidth=2;" vertex="1" parent="1">
          <mxGeometry x="374" y="2720" width="80" height="80" as="geometry" />
        </mxCell>
        <mxCell id="1763DktBf14fpHDiQ_p1-42" value="" style="edgeStyle=orthogonalEdgeStyle;rounded=0;orthogonalLoop=1;jettySize=auto;html=1;" edge="1" parent="1" source="1763DktBf14fpHDiQ_p1-39" target="1763DktBf14fpHDiQ_p1-41">
          <mxGeometry relative="1" as="geometry" />
        </mxCell>
        <mxCell id="1763DktBf14fpHDiQ_p1-120" value="" style="edgeStyle=orthogonalEdgeStyle;rounded=0;orthogonalLoop=1;jettySize=auto;html=1;" edge="1" parent="1" source="1763DktBf14fpHDiQ_p1-39" target="1763DktBf14fpHDiQ_p1-90">
          <mxGeometry relative="1" as="geometry" />
        </mxCell>
        <mxCell id="1763DktBf14fpHDiQ_p1-39" value="case 15?" style="rhombus;whiteSpace=wrap;html=1;strokeWidth=2;" vertex="1" parent="1">
          <mxGeometry x="374" y="2880" width="80" height="80" as="geometry" />
        </mxCell>
        <mxCell id="1763DktBf14fpHDiQ_p1-44" value="" style="edgeStyle=orthogonalEdgeStyle;rounded=0;orthogonalLoop=1;jettySize=auto;html=1;" edge="1" parent="1" source="1763DktBf14fpHDiQ_p1-41" target="1763DktBf14fpHDiQ_p1-43">
          <mxGeometry relative="1" as="geometry" />
        </mxCell>
        <mxCell id="1763DktBf14fpHDiQ_p1-121" value="" style="edgeStyle=orthogonalEdgeStyle;rounded=0;orthogonalLoop=1;jettySize=auto;html=1;" edge="1" parent="1" source="1763DktBf14fpHDiQ_p1-41" target="1763DktBf14fpHDiQ_p1-91">
          <mxGeometry relative="1" as="geometry" />
        </mxCell>
        <mxCell id="1763DktBf14fpHDiQ_p1-41" value="case 16?" style="rhombus;whiteSpace=wrap;html=1;strokeWidth=2;" vertex="1" parent="1">
          <mxGeometry x="374" y="3040" width="80" height="80" as="geometry" />
        </mxCell>
        <mxCell id="1763DktBf14fpHDiQ_p1-46" value="" style="edgeStyle=orthogonalEdgeStyle;rounded=0;orthogonalLoop=1;jettySize=auto;html=1;" edge="1" parent="1" source="1763DktBf14fpHDiQ_p1-43" target="1763DktBf14fpHDiQ_p1-45">
          <mxGeometry relative="1" as="geometry" />
        </mxCell>
        <mxCell id="1763DktBf14fpHDiQ_p1-122" value="" style="edgeStyle=orthogonalEdgeStyle;rounded=0;orthogonalLoop=1;jettySize=auto;html=1;" edge="1" parent="1" source="1763DktBf14fpHDiQ_p1-43" target="1763DktBf14fpHDiQ_p1-92">
          <mxGeometry relative="1" as="geometry" />
        </mxCell>
        <mxCell id="1763DktBf14fpHDiQ_p1-43" value="case 17?" style="rhombus;whiteSpace=wrap;html=1;strokeWidth=2;" vertex="1" parent="1">
          <mxGeometry x="374" y="3200" width="80" height="80" as="geometry" />
        </mxCell>
        <mxCell id="1763DktBf14fpHDiQ_p1-48" value="" style="edgeStyle=orthogonalEdgeStyle;rounded=0;orthogonalLoop=1;jettySize=auto;html=1;" edge="1" parent="1" source="1763DktBf14fpHDiQ_p1-45" target="1763DktBf14fpHDiQ_p1-47">
          <mxGeometry relative="1" as="geometry" />
        </mxCell>
        <mxCell id="1763DktBf14fpHDiQ_p1-123" value="" style="edgeStyle=orthogonalEdgeStyle;rounded=0;orthogonalLoop=1;jettySize=auto;html=1;" edge="1" parent="1" source="1763DktBf14fpHDiQ_p1-45" target="1763DktBf14fpHDiQ_p1-93">
          <mxGeometry relative="1" as="geometry" />
        </mxCell>
        <mxCell id="1763DktBf14fpHDiQ_p1-45" value="case 18?" style="rhombus;whiteSpace=wrap;html=1;strokeWidth=2;" vertex="1" parent="1">
          <mxGeometry x="374" y="3360" width="80" height="80" as="geometry" />
        </mxCell>
        <mxCell id="1763DktBf14fpHDiQ_p1-50" value="" style="edgeStyle=orthogonalEdgeStyle;rounded=0;orthogonalLoop=1;jettySize=auto;html=1;" edge="1" parent="1" source="1763DktBf14fpHDiQ_p1-47" target="1763DktBf14fpHDiQ_p1-49">
          <mxGeometry relative="1" as="geometry" />
        </mxCell>
        <mxCell id="1763DktBf14fpHDiQ_p1-124" style="edgeStyle=orthogonalEdgeStyle;rounded=0;orthogonalLoop=1;jettySize=auto;html=1;entryX=0;entryY=0.5;entryDx=0;entryDy=0;" edge="1" parent="1" source="1763DktBf14fpHDiQ_p1-47" target="1763DktBf14fpHDiQ_p1-94">
          <mxGeometry relative="1" as="geometry">
            <mxPoint x="480" y="3560" as="targetPoint" />
          </mxGeometry>
        </mxCell>
        <mxCell id="1763DktBf14fpHDiQ_p1-47" value="case 19?" style="rhombus;whiteSpace=wrap;html=1;strokeWidth=2;" vertex="1" parent="1">
          <mxGeometry x="374" y="3520" width="80" height="80" as="geometry" />
        </mxCell>
        <mxCell id="1763DktBf14fpHDiQ_p1-52" value="" style="edgeStyle=orthogonalEdgeStyle;rounded=0;orthogonalLoop=1;jettySize=auto;html=1;" edge="1" parent="1" source="1763DktBf14fpHDiQ_p1-49" target="1763DktBf14fpHDiQ_p1-51">
          <mxGeometry relative="1" as="geometry" />
        </mxCell>
        <mxCell id="1763DktBf14fpHDiQ_p1-125" value="" style="edgeStyle=orthogonalEdgeStyle;rounded=0;orthogonalLoop=1;jettySize=auto;html=1;" edge="1" parent="1" source="1763DktBf14fpHDiQ_p1-49" target="1763DktBf14fpHDiQ_p1-95">
          <mxGeometry relative="1" as="geometry" />
        </mxCell>
        <mxCell id="1763DktBf14fpHDiQ_p1-49" value="case 20?" style="rhombus;whiteSpace=wrap;html=1;strokeWidth=2;" vertex="1" parent="1">
          <mxGeometry x="374" y="3680" width="80" height="80" as="geometry" />
        </mxCell>
        <mxCell id="1763DktBf14fpHDiQ_p1-54" value="" style="edgeStyle=orthogonalEdgeStyle;rounded=0;orthogonalLoop=1;jettySize=auto;html=1;" edge="1" parent="1" source="1763DktBf14fpHDiQ_p1-51" target="1763DktBf14fpHDiQ_p1-53">
          <mxGeometry relative="1" as="geometry" />
        </mxCell>
        <mxCell id="1763DktBf14fpHDiQ_p1-126" value="" style="edgeStyle=orthogonalEdgeStyle;rounded=0;orthogonalLoop=1;jettySize=auto;html=1;" edge="1" parent="1" source="1763DktBf14fpHDiQ_p1-51" target="1763DktBf14fpHDiQ_p1-96">
          <mxGeometry relative="1" as="geometry" />
        </mxCell>
        <mxCell id="1763DktBf14fpHDiQ_p1-51" value="case 21?" style="rhombus;whiteSpace=wrap;html=1;strokeWidth=2;" vertex="1" parent="1">
          <mxGeometry x="374" y="3840" width="80" height="80" as="geometry" />
        </mxCell>
        <mxCell id="1763DktBf14fpHDiQ_p1-56" value="" style="edgeStyle=orthogonalEdgeStyle;rounded=0;orthogonalLoop=1;jettySize=auto;html=1;" edge="1" parent="1" source="1763DktBf14fpHDiQ_p1-53" target="1763DktBf14fpHDiQ_p1-55">
          <mxGeometry relative="1" as="geometry" />
        </mxCell>
        <mxCell id="1763DktBf14fpHDiQ_p1-127" value="" style="edgeStyle=orthogonalEdgeStyle;rounded=0;orthogonalLoop=1;jettySize=auto;html=1;" edge="1" parent="1" source="1763DktBf14fpHDiQ_p1-53" target="1763DktBf14fpHDiQ_p1-97">
          <mxGeometry relative="1" as="geometry" />
        </mxCell>
        <mxCell id="1763DktBf14fpHDiQ_p1-53" value="case 22?" style="rhombus;whiteSpace=wrap;html=1;strokeWidth=2;" vertex="1" parent="1">
          <mxGeometry x="374" y="4000" width="80" height="80" as="geometry" />
        </mxCell>
        <mxCell id="1763DktBf14fpHDiQ_p1-58" value="" style="edgeStyle=orthogonalEdgeStyle;rounded=0;orthogonalLoop=1;jettySize=auto;html=1;" edge="1" parent="1" source="1763DktBf14fpHDiQ_p1-55" target="1763DktBf14fpHDiQ_p1-57">
          <mxGeometry relative="1" as="geometry" />
        </mxCell>
        <mxCell id="1763DktBf14fpHDiQ_p1-128" value="" style="edgeStyle=orthogonalEdgeStyle;rounded=0;orthogonalLoop=1;jettySize=auto;html=1;" edge="1" parent="1" source="1763DktBf14fpHDiQ_p1-55" target="1763DktBf14fpHDiQ_p1-98">
          <mxGeometry relative="1" as="geometry" />
        </mxCell>
        <mxCell id="1763DktBf14fpHDiQ_p1-55" value="case 23?" style="rhombus;whiteSpace=wrap;html=1;strokeWidth=2;" vertex="1" parent="1">
          <mxGeometry x="374" y="4160" width="80" height="80" as="geometry" />
        </mxCell>
        <mxCell id="1763DktBf14fpHDiQ_p1-60" value="" style="edgeStyle=orthogonalEdgeStyle;rounded=0;orthogonalLoop=1;jettySize=auto;html=1;" edge="1" parent="1" source="1763DktBf14fpHDiQ_p1-57" target="1763DktBf14fpHDiQ_p1-59">
          <mxGeometry relative="1" as="geometry" />
        </mxCell>
        <mxCell id="1763DktBf14fpHDiQ_p1-129" value="" style="edgeStyle=orthogonalEdgeStyle;rounded=0;orthogonalLoop=1;jettySize=auto;html=1;" edge="1" parent="1" source="1763DktBf14fpHDiQ_p1-57" target="1763DktBf14fpHDiQ_p1-99">
          <mxGeometry relative="1" as="geometry" />
        </mxCell>
        <mxCell id="1763DktBf14fpHDiQ_p1-57" value="case 24?" style="rhombus;whiteSpace=wrap;html=1;strokeWidth=2;" vertex="1" parent="1">
          <mxGeometry x="374" y="4320" width="80" height="80" as="geometry" />
        </mxCell>
        <mxCell id="1763DktBf14fpHDiQ_p1-62" value="" style="edgeStyle=orthogonalEdgeStyle;rounded=0;orthogonalLoop=1;jettySize=auto;html=1;" edge="1" parent="1" source="1763DktBf14fpHDiQ_p1-59" target="1763DktBf14fpHDiQ_p1-61">
          <mxGeometry relative="1" as="geometry" />
        </mxCell>
        <mxCell id="1763DktBf14fpHDiQ_p1-130" value="" style="edgeStyle=orthogonalEdgeStyle;rounded=0;orthogonalLoop=1;jettySize=auto;html=1;" edge="1" parent="1" source="1763DktBf14fpHDiQ_p1-59" target="1763DktBf14fpHDiQ_p1-100">
          <mxGeometry relative="1" as="geometry" />
        </mxCell>
        <mxCell id="1763DktBf14fpHDiQ_p1-59" value="case 25?" style="rhombus;whiteSpace=wrap;html=1;strokeWidth=2;" vertex="1" parent="1">
          <mxGeometry x="374" y="4480" width="80" height="80" as="geometry" />
        </mxCell>
        <mxCell id="1763DktBf14fpHDiQ_p1-64" value="" style="edgeStyle=orthogonalEdgeStyle;rounded=0;orthogonalLoop=1;jettySize=auto;html=1;" edge="1" parent="1" source="1763DktBf14fpHDiQ_p1-61" target="1763DktBf14fpHDiQ_p1-63">
          <mxGeometry relative="1" as="geometry" />
        </mxCell>
        <mxCell id="1763DktBf14fpHDiQ_p1-131" value="" style="edgeStyle=orthogonalEdgeStyle;rounded=0;orthogonalLoop=1;jettySize=auto;html=1;" edge="1" parent="1" source="1763DktBf14fpHDiQ_p1-61" target="1763DktBf14fpHDiQ_p1-101">
          <mxGeometry relative="1" as="geometry" />
        </mxCell>
        <mxCell id="1763DktBf14fpHDiQ_p1-61" value="case 26?" style="rhombus;whiteSpace=wrap;html=1;strokeWidth=2;" vertex="1" parent="1">
          <mxGeometry x="374" y="4640" width="80" height="80" as="geometry" />
        </mxCell>
        <mxCell id="1763DktBf14fpHDiQ_p1-66" value="" style="edgeStyle=orthogonalEdgeStyle;rounded=0;orthogonalLoop=1;jettySize=auto;html=1;" edge="1" parent="1" source="1763DktBf14fpHDiQ_p1-63" target="1763DktBf14fpHDiQ_p1-65">
          <mxGeometry relative="1" as="geometry" />
        </mxCell>
        <mxCell id="1763DktBf14fpHDiQ_p1-132" value="" style="edgeStyle=orthogonalEdgeStyle;rounded=0;orthogonalLoop=1;jettySize=auto;html=1;" edge="1" parent="1" source="1763DktBf14fpHDiQ_p1-63" target="1763DktBf14fpHDiQ_p1-102">
          <mxGeometry relative="1" as="geometry" />
        </mxCell>
        <mxCell id="1763DktBf14fpHDiQ_p1-63" value="case 27?" style="rhombus;whiteSpace=wrap;html=1;strokeWidth=2;" vertex="1" parent="1">
          <mxGeometry x="374" y="4800" width="80" height="80" as="geometry" />
        </mxCell>
        <mxCell id="1763DktBf14fpHDiQ_p1-68" value="" style="edgeStyle=orthogonalEdgeStyle;rounded=0;orthogonalLoop=1;jettySize=auto;html=1;" edge="1" parent="1" source="1763DktBf14fpHDiQ_p1-65" target="1763DktBf14fpHDiQ_p1-67">
          <mxGeometry relative="1" as="geometry" />
        </mxCell>
        <mxCell id="1763DktBf14fpHDiQ_p1-133" value="" style="edgeStyle=orthogonalEdgeStyle;rounded=0;orthogonalLoop=1;jettySize=auto;html=1;" edge="1" parent="1" source="1763DktBf14fpHDiQ_p1-65" target="1763DktBf14fpHDiQ_p1-103">
          <mxGeometry relative="1" as="geometry" />
        </mxCell>
        <mxCell id="1763DktBf14fpHDiQ_p1-65" value="case 28?" style="rhombus;whiteSpace=wrap;html=1;strokeWidth=2;" vertex="1" parent="1">
          <mxGeometry x="374" y="4960" width="80" height="80" as="geometry" />
        </mxCell>
        <mxCell id="1763DktBf14fpHDiQ_p1-70" value="" style="edgeStyle=orthogonalEdgeStyle;rounded=0;orthogonalLoop=1;jettySize=auto;html=1;" edge="1" parent="1" source="1763DktBf14fpHDiQ_p1-67" target="1763DktBf14fpHDiQ_p1-69">
          <mxGeometry relative="1" as="geometry" />
        </mxCell>
        <mxCell id="1763DktBf14fpHDiQ_p1-134" value="" style="edgeStyle=orthogonalEdgeStyle;rounded=0;orthogonalLoop=1;jettySize=auto;html=1;" edge="1" parent="1" source="1763DktBf14fpHDiQ_p1-67" target="1763DktBf14fpHDiQ_p1-104">
          <mxGeometry relative="1" as="geometry" />
        </mxCell>
        <mxCell id="1763DktBf14fpHDiQ_p1-67" value="case 29?" style="rhombus;whiteSpace=wrap;html=1;strokeWidth=2;" vertex="1" parent="1">
          <mxGeometry x="374" y="5120" width="80" height="80" as="geometry" />
        </mxCell>
        <mxCell id="1763DktBf14fpHDiQ_p1-72" value="" style="edgeStyle=orthogonalEdgeStyle;rounded=0;orthogonalLoop=1;jettySize=auto;html=1;" edge="1" parent="1" source="1763DktBf14fpHDiQ_p1-69" target="1763DktBf14fpHDiQ_p1-71">
          <mxGeometry relative="1" as="geometry" />
        </mxCell>
        <mxCell id="1763DktBf14fpHDiQ_p1-135" value="" style="edgeStyle=orthogonalEdgeStyle;rounded=0;orthogonalLoop=1;jettySize=auto;html=1;" edge="1" parent="1" source="1763DktBf14fpHDiQ_p1-69" target="1763DktBf14fpHDiQ_p1-105">
          <mxGeometry relative="1" as="geometry" />
        </mxCell>
        <mxCell id="1763DktBf14fpHDiQ_p1-69" value="case 30?" style="rhombus;whiteSpace=wrap;html=1;strokeWidth=2;" vertex="1" parent="1">
          <mxGeometry x="374" y="5280" width="80" height="80" as="geometry" />
        </mxCell>
        <mxCell id="1763DktBf14fpHDiQ_p1-74" value="" style="edgeStyle=orthogonalEdgeStyle;rounded=0;orthogonalLoop=1;jettySize=auto;html=1;" edge="1" parent="1" source="1763DktBf14fpHDiQ_p1-139" target="1763DktBf14fpHDiQ_p1-73">
          <mxGeometry relative="1" as="geometry" />
        </mxCell>
        <mxCell id="1763DktBf14fpHDiQ_p1-136" value="" style="edgeStyle=orthogonalEdgeStyle;rounded=0;orthogonalLoop=1;jettySize=auto;html=1;" edge="1" parent="1" source="1763DktBf14fpHDiQ_p1-71" target="1763DktBf14fpHDiQ_p1-106">
          <mxGeometry relative="1" as="geometry" />
        </mxCell>
        <mxCell id="1763DktBf14fpHDiQ_p1-71" value="default" style="rhombus;whiteSpace=wrap;html=1;strokeWidth=2;" vertex="1" parent="1">
          <mxGeometry x="374" y="5440" width="80" height="80" as="geometry" />
        </mxCell>
        <mxCell id="1763DktBf14fpHDiQ_p1-73" value="end" style="strokeWidth=2;html=1;shape=mxgraph.flowchart.start_1;whiteSpace=wrap;" vertex="1" parent="1">
          <mxGeometry x="364" y="5630" width="100" height="60" as="geometry" />
        </mxCell>
        <mxCell id="1763DktBf14fpHDiQ_p1-137" style="edgeStyle=orthogonalEdgeStyle;rounded=0;orthogonalLoop=1;jettySize=auto;html=1;exitX=1;exitY=0.5;exitDx=0;exitDy=0;entryX=0.85;entryY=0.4;entryDx=0;entryDy=0;entryPerimeter=0;" edge="1" parent="1" source="1763DktBf14fpHDiQ_p1-75" target="1763DktBf14fpHDiQ_p1-139">
          <mxGeometry relative="1" as="geometry">
            <mxPoint x="690" y="5600" as="targetPoint" />
            <Array as="points">
              <mxPoint x="760" y="680" />
              <mxPoint x="760" y="5580" />
            </Array>
          </mxGeometry>
        </mxCell>
        <mxCell id="1763DktBf14fpHDiQ_p1-75" value="แสดง One" style="shape=parallelogram;perimeter=parallelogramPerimeter;whiteSpace=wrap;html=1;fixedSize=1;strokeWidth=2;" vertex="1" parent="1">
          <mxGeometry x="514" y="650" width="120" height="60" as="geometry" />
        </mxCell>
        <mxCell id="1763DktBf14fpHDiQ_p1-77" value="แสดง Two" style="shape=parallelogram;perimeter=parallelogramPerimeter;whiteSpace=wrap;html=1;fixedSize=1;strokeWidth=2;" vertex="1" parent="1">
          <mxGeometry x="510" y="810" width="120" height="60" as="geometry" />
        </mxCell>
        <mxCell id="1763DktBf14fpHDiQ_p1-78" value="แสดง Three" style="shape=parallelogram;perimeter=parallelogramPerimeter;whiteSpace=wrap;html=1;fixedSize=1;strokeWidth=2;" vertex="1" parent="1">
          <mxGeometry x="514" y="970" width="120" height="60" as="geometry" />
        </mxCell>
        <mxCell id="1763DktBf14fpHDiQ_p1-79" value="แสดง Four" style="shape=parallelogram;perimeter=parallelogramPerimeter;whiteSpace=wrap;html=1;fixedSize=1;strokeWidth=2;" vertex="1" parent="1">
          <mxGeometry x="510" y="1130" width="120" height="60" as="geometry" />
        </mxCell>
        <mxCell id="1763DktBf14fpHDiQ_p1-80" value="แสดง Five" style="shape=parallelogram;perimeter=parallelogramPerimeter;whiteSpace=wrap;html=1;fixedSize=1;strokeWidth=2;" vertex="1" parent="1">
          <mxGeometry x="510" y="1290" width="120" height="60" as="geometry" />
        </mxCell>
        <mxCell id="1763DktBf14fpHDiQ_p1-81" value="แสดง Nine" style="shape=parallelogram;perimeter=parallelogramPerimeter;whiteSpace=wrap;html=1;fixedSize=1;strokeWidth=2;" vertex="1" parent="1">
          <mxGeometry x="514" y="1930" width="120" height="60" as="geometry" />
        </mxCell>
        <mxCell id="1763DktBf14fpHDiQ_p1-82" value="แสดง Eight" style="shape=parallelogram;perimeter=parallelogramPerimeter;whiteSpace=wrap;html=1;fixedSize=1;strokeWidth=2;" vertex="1" parent="1">
          <mxGeometry x="514" y="1770" width="120" height="60" as="geometry" />
        </mxCell>
        <mxCell id="1763DktBf14fpHDiQ_p1-83" value="แสดง Seven" style="shape=parallelogram;perimeter=parallelogramPerimeter;whiteSpace=wrap;html=1;fixedSize=1;strokeWidth=2;" vertex="1" parent="1">
          <mxGeometry x="510" y="1610" width="120" height="60" as="geometry" />
        </mxCell>
        <mxCell id="1763DktBf14fpHDiQ_p1-84" value="แสดง Six" style="shape=parallelogram;perimeter=parallelogramPerimeter;whiteSpace=wrap;html=1;fixedSize=1;strokeWidth=2;" vertex="1" parent="1">
          <mxGeometry x="510" y="1450" width="120" height="60" as="geometry" />
        </mxCell>
        <mxCell id="1763DktBf14fpHDiQ_p1-85" value="แสดง Ten" style="shape=parallelogram;perimeter=parallelogramPerimeter;whiteSpace=wrap;html=1;fixedSize=1;strokeWidth=2;" vertex="1" parent="1">
          <mxGeometry x="510" y="2090" width="120" height="60" as="geometry" />
        </mxCell>
        <mxCell id="1763DktBf14fpHDiQ_p1-86" value="แสดง Eleven" style="shape=parallelogram;perimeter=parallelogramPerimeter;whiteSpace=wrap;html=1;fixedSize=1;strokeWidth=2;" vertex="1" parent="1">
          <mxGeometry x="510" y="2250" width="120" height="60" as="geometry" />
        </mxCell>
        <mxCell id="1763DktBf14fpHDiQ_p1-87" value="แสดง Twelve" style="shape=parallelogram;perimeter=parallelogramPerimeter;whiteSpace=wrap;html=1;fixedSize=1;strokeWidth=2;" vertex="1" parent="1">
          <mxGeometry x="514" y="2410" width="120" height="60" as="geometry" />
        </mxCell>
        <mxCell id="1763DktBf14fpHDiQ_p1-88" value="แสดง Thirteen" style="shape=parallelogram;perimeter=parallelogramPerimeter;whiteSpace=wrap;html=1;fixedSize=1;strokeWidth=2;" vertex="1" parent="1">
          <mxGeometry x="514" y="2570" width="120" height="60" as="geometry" />
        </mxCell>
        <mxCell id="1763DktBf14fpHDiQ_p1-89" value="แสดง Fourteen" style="shape=parallelogram;perimeter=parallelogramPerimeter;whiteSpace=wrap;html=1;fixedSize=1;strokeWidth=2;" vertex="1" parent="1">
          <mxGeometry x="514" y="2730" width="120" height="60" as="geometry" />
        </mxCell>
        <mxCell id="1763DktBf14fpHDiQ_p1-90" value="แสดง Fifteen" style="shape=parallelogram;perimeter=parallelogramPerimeter;whiteSpace=wrap;html=1;fixedSize=1;strokeWidth=2;" vertex="1" parent="1">
          <mxGeometry x="514" y="2890" width="120" height="60" as="geometry" />
        </mxCell>
        <mxCell id="1763DktBf14fpHDiQ_p1-91" value="แสดง Sixteen" style="shape=parallelogram;perimeter=parallelogramPerimeter;whiteSpace=wrap;html=1;fixedSize=1;strokeWidth=2;" vertex="1" parent="1">
          <mxGeometry x="514" y="3050" width="120" height="60" as="geometry" />
        </mxCell>
        <mxCell id="1763DktBf14fpHDiQ_p1-189" style="edgeStyle=orthogonalEdgeStyle;rounded=0;orthogonalLoop=1;jettySize=auto;html=1;exitX=1;exitY=0.5;exitDx=0;exitDy=0;" edge="1" parent="1" source="1763DktBf14fpHDiQ_p1-92" target="1763DktBf14fpHDiQ_p1-188">
          <mxGeometry relative="1" as="geometry" />
        </mxCell>
        <mxCell id="1763DktBf14fpHDiQ_p1-92" value="แสดง Seventeen" style="shape=parallelogram;perimeter=parallelogramPerimeter;whiteSpace=wrap;html=1;fixedSize=1;strokeWidth=2;" vertex="1" parent="1">
          <mxGeometry x="514" y="3210" width="120" height="60" as="geometry" />
        </mxCell>
        <mxCell id="1763DktBf14fpHDiQ_p1-93" value="แสดง Eighteen" style="shape=parallelogram;perimeter=parallelogramPerimeter;whiteSpace=wrap;html=1;fixedSize=1;strokeWidth=2;" vertex="1" parent="1">
          <mxGeometry x="514" y="3370" width="120" height="60" as="geometry" />
        </mxCell>
        <mxCell id="1763DktBf14fpHDiQ_p1-94" value="แสดง Nineteen" style="shape=parallelogram;perimeter=parallelogramPerimeter;whiteSpace=wrap;html=1;fixedSize=1;strokeWidth=2;" vertex="1" parent="1">
          <mxGeometry x="510" y="3530" width="120" height="60" as="geometry" />
        </mxCell>
        <mxCell id="1763DktBf14fpHDiQ_p1-95" value="แสดง Twenty" style="shape=parallelogram;perimeter=parallelogramPerimeter;whiteSpace=wrap;html=1;fixedSize=1;strokeWidth=2;" vertex="1" parent="1">
          <mxGeometry x="510" y="3690" width="120" height="60" as="geometry" />
        </mxCell>
        <mxCell id="1763DktBf14fpHDiQ_p1-96" value="แสดง Twenty-One" style="shape=parallelogram;perimeter=parallelogramPerimeter;whiteSpace=wrap;html=1;fixedSize=1;strokeWidth=2;" vertex="1" parent="1">
          <mxGeometry x="510" y="3850" width="120" height="60" as="geometry" />
        </mxCell>
        <mxCell id="1763DktBf14fpHDiQ_p1-97" value="แสดง Twenty-Two" style="shape=parallelogram;perimeter=parallelogramPerimeter;whiteSpace=wrap;html=1;fixedSize=1;strokeWidth=2;" vertex="1" parent="1">
          <mxGeometry x="510" y="4010" width="120" height="60" as="geometry" />
        </mxCell>
        <mxCell id="1763DktBf14fpHDiQ_p1-98" value="แสดง Twenty-Three" style="shape=parallelogram;perimeter=parallelogramPerimeter;whiteSpace=wrap;html=1;fixedSize=1;strokeWidth=2;" vertex="1" parent="1">
          <mxGeometry x="514" y="4170" width="120" height="60" as="geometry" />
        </mxCell>
        <mxCell id="1763DktBf14fpHDiQ_p1-99" value="แสดง Twenty-Four" style="shape=parallelogram;perimeter=parallelogramPerimeter;whiteSpace=wrap;html=1;fixedSize=1;strokeWidth=2;" vertex="1" parent="1">
          <mxGeometry x="514" y="4330" width="120" height="60" as="geometry" />
        </mxCell>
        <mxCell id="1763DktBf14fpHDiQ_p1-100" value="แสดง Twenty-Five" style="shape=parallelogram;perimeter=parallelogramPerimeter;whiteSpace=wrap;html=1;fixedSize=1;strokeWidth=2;" vertex="1" parent="1">
          <mxGeometry x="514" y="4490" width="120" height="60" as="geometry" />
        </mxCell>
        <mxCell id="1763DktBf14fpHDiQ_p1-101" value="แสดง Twenty-Six" style="shape=parallelogram;perimeter=parallelogramPerimeter;whiteSpace=wrap;html=1;fixedSize=1;strokeWidth=2;" vertex="1" parent="1">
          <mxGeometry x="510" y="4650" width="120" height="60" as="geometry" />
        </mxCell>
        <mxCell id="1763DktBf14fpHDiQ_p1-193" style="edgeStyle=orthogonalEdgeStyle;rounded=0;orthogonalLoop=1;jettySize=auto;html=1;exitX=1;exitY=0.5;exitDx=0;exitDy=0;" edge="1" parent="1" source="1763DktBf14fpHDiQ_p1-102" target="1763DktBf14fpHDiQ_p1-192">
          <mxGeometry relative="1" as="geometry" />
        </mxCell>
        <mxCell id="1763DktBf14fpHDiQ_p1-102" value="แสดง Twenty-Seven" style="shape=parallelogram;perimeter=parallelogramPerimeter;whiteSpace=wrap;html=1;fixedSize=1;strokeWidth=2;" vertex="1" parent="1">
          <mxGeometry x="514" y="4810" width="120" height="60" as="geometry" />
        </mxCell>
        <mxCell id="1763DktBf14fpHDiQ_p1-103" value="แสดง Twenty-Eight" style="shape=parallelogram;perimeter=parallelogramPerimeter;whiteSpace=wrap;html=1;fixedSize=1;strokeWidth=2;" vertex="1" parent="1">
          <mxGeometry x="514" y="4970" width="120" height="60" as="geometry" />
        </mxCell>
        <mxCell id="1763DktBf14fpHDiQ_p1-151" style="edgeStyle=orthogonalEdgeStyle;rounded=0;orthogonalLoop=1;jettySize=auto;html=1;exitX=1;exitY=0.5;exitDx=0;exitDy=0;" edge="1" parent="1" source="1763DktBf14fpHDiQ_p1-104" target="1763DktBf14fpHDiQ_p1-150">
          <mxGeometry relative="1" as="geometry" />
        </mxCell>
        <mxCell id="1763DktBf14fpHDiQ_p1-104" value="แสดง Twenty-Nine" style="shape=parallelogram;perimeter=parallelogramPerimeter;whiteSpace=wrap;html=1;fixedSize=1;strokeWidth=2;" vertex="1" parent="1">
          <mxGeometry x="514" y="5130" width="120" height="60" as="geometry" />
        </mxCell>
        <mxCell id="1763DktBf14fpHDiQ_p1-149" style="edgeStyle=orthogonalEdgeStyle;rounded=0;orthogonalLoop=1;jettySize=auto;html=1;exitX=1;exitY=0.5;exitDx=0;exitDy=0;" edge="1" parent="1" source="1763DktBf14fpHDiQ_p1-105" target="1763DktBf14fpHDiQ_p1-146">
          <mxGeometry relative="1" as="geometry" />
        </mxCell>
        <mxCell id="1763DktBf14fpHDiQ_p1-105" value="แสดง Thirty" style="shape=parallelogram;perimeter=parallelogramPerimeter;whiteSpace=wrap;html=1;fixedSize=1;strokeWidth=2;" vertex="1" parent="1">
          <mxGeometry x="510" y="5290" width="120" height="60" as="geometry" />
        </mxCell>
        <mxCell id="1763DktBf14fpHDiQ_p1-142" value="" style="edgeStyle=orthogonalEdgeStyle;rounded=0;orthogonalLoop=1;jettySize=auto;html=1;" edge="1" parent="1" source="1763DktBf14fpHDiQ_p1-106" target="1763DktBf14fpHDiQ_p1-141">
          <mxGeometry relative="1" as="geometry" />
        </mxCell>
        <mxCell id="1763DktBf14fpHDiQ_p1-106" value="แสดง Zero" style="shape=parallelogram;perimeter=parallelogramPerimeter;whiteSpace=wrap;html=1;fixedSize=1;strokeWidth=2;" vertex="1" parent="1">
          <mxGeometry x="514" y="5450" width="120" height="60" as="geometry" />
        </mxCell>
        <mxCell id="1763DktBf14fpHDiQ_p1-140" value="" style="edgeStyle=orthogonalEdgeStyle;rounded=0;orthogonalLoop=1;jettySize=auto;html=1;" edge="1" parent="1" source="1763DktBf14fpHDiQ_p1-71" target="1763DktBf14fpHDiQ_p1-139">
          <mxGeometry relative="1" as="geometry">
            <mxPoint x="414" y="5520" as="sourcePoint" />
            <mxPoint x="414" y="5630" as="targetPoint" />
          </mxGeometry>
        </mxCell>
        <mxCell id="1763DktBf14fpHDiQ_p1-139" value="" style="shape=waypoint;sketch=0;fillStyle=solid;size=6;pointerEvents=1;points=[];fillColor=none;resizable=0;rotatable=0;perimeter=centerPerimeter;snapToPoint=1;" vertex="1" parent="1">
          <mxGeometry x="404" y="5570" width="20" height="20" as="geometry" />
        </mxCell>
        <mxCell id="1763DktBf14fpHDiQ_p1-141" value="" style="shape=waypoint;sketch=0;fillStyle=solid;size=6;pointerEvents=1;points=[];fillColor=none;resizable=0;rotatable=0;perimeter=centerPerimeter;snapToPoint=1;" vertex="1" parent="1">
          <mxGeometry x="750" y="5470" width="20" height="20" as="geometry" />
        </mxCell>
        <mxCell id="1763DktBf14fpHDiQ_p1-146" value="" style="shape=waypoint;sketch=0;size=6;pointerEvents=1;points=[];fillColor=default;resizable=0;rotatable=0;perimeter=centerPerimeter;snapToPoint=1;strokeWidth=2;" vertex="1" parent="1">
          <mxGeometry x="750" y="5310" width="20" height="20" as="geometry" />
        </mxCell>
        <mxCell id="1763DktBf14fpHDiQ_p1-150" value="" style="shape=waypoint;sketch=0;fillStyle=solid;size=6;pointerEvents=1;points=[];fillColor=none;resizable=0;rotatable=0;perimeter=centerPerimeter;snapToPoint=1;" vertex="1" parent="1">
          <mxGeometry x="750" y="5150" width="20" height="20" as="geometry" />
        </mxCell>
        <mxCell id="1763DktBf14fpHDiQ_p1-154" value="" style="shape=waypoint;sketch=0;fillStyle=solid;size=6;pointerEvents=1;points=[];fillColor=none;resizable=0;rotatable=0;perimeter=centerPerimeter;snapToPoint=1;" vertex="1" parent="1">
          <mxGeometry x="750" y="830" width="20" height="20" as="geometry" />
        </mxCell>
        <mxCell id="1763DktBf14fpHDiQ_p1-155" style="edgeStyle=orthogonalEdgeStyle;rounded=0;orthogonalLoop=1;jettySize=auto;html=1;exitX=1;exitY=0.5;exitDx=0;exitDy=0;entryX=-0.1;entryY=0.35;entryDx=0;entryDy=0;entryPerimeter=0;" edge="1" parent="1" source="1763DktBf14fpHDiQ_p1-77" target="1763DktBf14fpHDiQ_p1-154">
          <mxGeometry relative="1" as="geometry" />
        </mxCell>
        <mxCell id="1763DktBf14fpHDiQ_p1-156" value="" style="shape=waypoint;sketch=0;fillStyle=solid;size=6;pointerEvents=1;points=[];fillColor=none;resizable=0;rotatable=0;perimeter=centerPerimeter;snapToPoint=1;" vertex="1" parent="1">
          <mxGeometry x="750" y="990" width="20" height="20" as="geometry" />
        </mxCell>
        <mxCell id="1763DktBf14fpHDiQ_p1-157" style="edgeStyle=orthogonalEdgeStyle;rounded=0;orthogonalLoop=1;jettySize=auto;html=1;exitX=1;exitY=0.5;exitDx=0;exitDy=0;entryX=0.25;entryY=0.35;entryDx=0;entryDy=0;entryPerimeter=0;" edge="1" parent="1" source="1763DktBf14fpHDiQ_p1-78" target="1763DktBf14fpHDiQ_p1-156">
          <mxGeometry relative="1" as="geometry" />
        </mxCell>
        <mxCell id="1763DktBf14fpHDiQ_p1-158" value="" style="shape=waypoint;sketch=0;fillStyle=solid;size=6;pointerEvents=1;points=[];fillColor=none;resizable=0;rotatable=0;perimeter=centerPerimeter;snapToPoint=1;" vertex="1" parent="1">
          <mxGeometry x="750" y="1150" width="20" height="20" as="geometry" />
        </mxCell>
        <mxCell id="1763DktBf14fpHDiQ_p1-159" style="edgeStyle=orthogonalEdgeStyle;rounded=0;orthogonalLoop=1;jettySize=auto;html=1;exitX=1;exitY=0.5;exitDx=0;exitDy=0;entryX=1.2;entryY=0.7;entryDx=0;entryDy=0;entryPerimeter=0;" edge="1" parent="1" source="1763DktBf14fpHDiQ_p1-79" target="1763DktBf14fpHDiQ_p1-158">
          <mxGeometry relative="1" as="geometry" />
        </mxCell>
        <mxCell id="1763DktBf14fpHDiQ_p1-160" value="" style="shape=waypoint;sketch=0;fillStyle=solid;size=6;pointerEvents=1;points=[];fillColor=none;resizable=0;rotatable=0;perimeter=centerPerimeter;snapToPoint=1;" vertex="1" parent="1">
          <mxGeometry x="750" y="1310" width="20" height="20" as="geometry" />
        </mxCell>
        <mxCell id="1763DktBf14fpHDiQ_p1-161" style="edgeStyle=orthogonalEdgeStyle;rounded=0;orthogonalLoop=1;jettySize=auto;html=1;exitX=1;exitY=0.5;exitDx=0;exitDy=0;entryX=0.8;entryY=0.4;entryDx=0;entryDy=0;entryPerimeter=0;" edge="1" parent="1" source="1763DktBf14fpHDiQ_p1-80" target="1763DktBf14fpHDiQ_p1-160">
          <mxGeometry relative="1" as="geometry" />
        </mxCell>
        <mxCell id="1763DktBf14fpHDiQ_p1-162" value="" style="shape=waypoint;sketch=0;fillStyle=solid;size=6;pointerEvents=1;points=[];fillColor=none;resizable=0;rotatable=0;perimeter=centerPerimeter;snapToPoint=1;" vertex="1" parent="1">
          <mxGeometry x="750" y="1470" width="20" height="20" as="geometry" />
        </mxCell>
        <mxCell id="1763DktBf14fpHDiQ_p1-163" style="edgeStyle=orthogonalEdgeStyle;rounded=0;orthogonalLoop=1;jettySize=auto;html=1;exitX=1;exitY=0.5;exitDx=0;exitDy=0;entryX=-0.15;entryY=0.65;entryDx=0;entryDy=0;entryPerimeter=0;" edge="1" parent="1" source="1763DktBf14fpHDiQ_p1-84" target="1763DktBf14fpHDiQ_p1-162">
          <mxGeometry relative="1" as="geometry" />
        </mxCell>
        <mxCell id="1763DktBf14fpHDiQ_p1-164" value="" style="shape=waypoint;sketch=0;fillStyle=solid;size=6;pointerEvents=1;points=[];fillColor=none;resizable=0;rotatable=0;perimeter=centerPerimeter;snapToPoint=1;" vertex="1" parent="1">
          <mxGeometry x="750" y="1630" width="20" height="20" as="geometry" />
        </mxCell>
        <mxCell id="1763DktBf14fpHDiQ_p1-165" style="edgeStyle=orthogonalEdgeStyle;rounded=0;orthogonalLoop=1;jettySize=auto;html=1;exitX=1;exitY=0.5;exitDx=0;exitDy=0;entryX=-0.1;entryY=0.55;entryDx=0;entryDy=0;entryPerimeter=0;" edge="1" parent="1" source="1763DktBf14fpHDiQ_p1-83" target="1763DktBf14fpHDiQ_p1-164">
          <mxGeometry relative="1" as="geometry" />
        </mxCell>
        <mxCell id="1763DktBf14fpHDiQ_p1-166" value="" style="shape=waypoint;sketch=0;fillStyle=solid;size=6;pointerEvents=1;points=[];fillColor=none;resizable=0;rotatable=0;perimeter=centerPerimeter;snapToPoint=1;" vertex="1" parent="1">
          <mxGeometry x="750" y="1790" width="20" height="20" as="geometry" />
        </mxCell>
        <mxCell id="1763DktBf14fpHDiQ_p1-167" style="edgeStyle=orthogonalEdgeStyle;rounded=0;orthogonalLoop=1;jettySize=auto;html=1;exitX=1;exitY=0.5;exitDx=0;exitDy=0;entryX=-0.05;entryY=0.9;entryDx=0;entryDy=0;entryPerimeter=0;" edge="1" parent="1" source="1763DktBf14fpHDiQ_p1-82" target="1763DktBf14fpHDiQ_p1-166">
          <mxGeometry relative="1" as="geometry" />
        </mxCell>
        <mxCell id="1763DktBf14fpHDiQ_p1-168" value="" style="shape=waypoint;sketch=0;fillStyle=solid;size=6;pointerEvents=1;points=[];fillColor=none;resizable=0;rotatable=0;perimeter=centerPerimeter;snapToPoint=1;" vertex="1" parent="1">
          <mxGeometry x="750" y="1950" width="20" height="20" as="geometry" />
        </mxCell>
        <mxCell id="1763DktBf14fpHDiQ_p1-169" style="edgeStyle=orthogonalEdgeStyle;rounded=0;orthogonalLoop=1;jettySize=auto;html=1;exitX=1;exitY=0.5;exitDx=0;exitDy=0;entryX=-0.2;entryY=0.5;entryDx=0;entryDy=0;entryPerimeter=0;" edge="1" parent="1" source="1763DktBf14fpHDiQ_p1-81" target="1763DktBf14fpHDiQ_p1-168">
          <mxGeometry relative="1" as="geometry" />
        </mxCell>
        <mxCell id="1763DktBf14fpHDiQ_p1-170" value="" style="shape=waypoint;sketch=0;fillStyle=solid;size=6;pointerEvents=1;points=[];fillColor=none;resizable=0;rotatable=0;perimeter=centerPerimeter;snapToPoint=1;" vertex="1" parent="1">
          <mxGeometry x="750" y="2110" width="20" height="20" as="geometry" />
        </mxCell>
        <mxCell id="1763DktBf14fpHDiQ_p1-171" style="edgeStyle=orthogonalEdgeStyle;rounded=0;orthogonalLoop=1;jettySize=auto;html=1;exitX=1;exitY=0.5;exitDx=0;exitDy=0;entryX=-0.1;entryY=0.4;entryDx=0;entryDy=0;entryPerimeter=0;" edge="1" parent="1" source="1763DktBf14fpHDiQ_p1-85" target="1763DktBf14fpHDiQ_p1-170">
          <mxGeometry relative="1" as="geometry" />
        </mxCell>
        <mxCell id="1763DktBf14fpHDiQ_p1-176" value="" style="shape=waypoint;sketch=0;fillStyle=solid;size=6;pointerEvents=1;points=[];fillColor=none;resizable=0;rotatable=0;perimeter=centerPerimeter;snapToPoint=1;" vertex="1" parent="1">
          <mxGeometry x="750" y="2270" width="20" height="20" as="geometry" />
        </mxCell>
        <mxCell id="1763DktBf14fpHDiQ_p1-177" style="edgeStyle=orthogonalEdgeStyle;rounded=0;orthogonalLoop=1;jettySize=auto;html=1;exitX=1;exitY=0.5;exitDx=0;exitDy=0;entryX=0.1;entryY=0.4;entryDx=0;entryDy=0;entryPerimeter=0;" edge="1" parent="1" source="1763DktBf14fpHDiQ_p1-86" target="1763DktBf14fpHDiQ_p1-176">
          <mxGeometry relative="1" as="geometry" />
        </mxCell>
        <mxCell id="1763DktBf14fpHDiQ_p1-178" value="" style="shape=waypoint;sketch=0;fillStyle=solid;size=6;pointerEvents=1;points=[];fillColor=none;resizable=0;rotatable=0;perimeter=centerPerimeter;snapToPoint=1;" vertex="1" parent="1">
          <mxGeometry x="750" y="2430" width="20" height="20" as="geometry" />
        </mxCell>
        <mxCell id="1763DktBf14fpHDiQ_p1-179" style="edgeStyle=orthogonalEdgeStyle;rounded=0;orthogonalLoop=1;jettySize=auto;html=1;exitX=1;exitY=0.5;exitDx=0;exitDy=0;entryX=0.1;entryY=0.45;entryDx=0;entryDy=0;entryPerimeter=0;" edge="1" parent="1" source="1763DktBf14fpHDiQ_p1-87" target="1763DktBf14fpHDiQ_p1-178">
          <mxGeometry relative="1" as="geometry" />
        </mxCell>
        <mxCell id="1763DktBf14fpHDiQ_p1-180" value="" style="shape=waypoint;sketch=0;fillStyle=solid;size=6;pointerEvents=1;points=[];fillColor=none;resizable=0;rotatable=0;perimeter=centerPerimeter;snapToPoint=1;" vertex="1" parent="1">
          <mxGeometry x="750" y="2590" width="20" height="20" as="geometry" />
        </mxCell>
        <mxCell id="1763DktBf14fpHDiQ_p1-181" style="edgeStyle=orthogonalEdgeStyle;rounded=0;orthogonalLoop=1;jettySize=auto;html=1;exitX=1;exitY=0.5;exitDx=0;exitDy=0;entryX=0.15;entryY=0.6;entryDx=0;entryDy=0;entryPerimeter=0;" edge="1" parent="1" source="1763DktBf14fpHDiQ_p1-88" target="1763DktBf14fpHDiQ_p1-180">
          <mxGeometry relative="1" as="geometry" />
        </mxCell>
        <mxCell id="1763DktBf14fpHDiQ_p1-182" value="" style="shape=waypoint;sketch=0;fillStyle=solid;size=6;pointerEvents=1;points=[];fillColor=none;resizable=0;rotatable=0;perimeter=centerPerimeter;snapToPoint=1;" vertex="1" parent="1">
          <mxGeometry x="750" y="2750" width="20" height="20" as="geometry" />
        </mxCell>
        <mxCell id="1763DktBf14fpHDiQ_p1-183" style="edgeStyle=orthogonalEdgeStyle;rounded=0;orthogonalLoop=1;jettySize=auto;html=1;exitX=1;exitY=0.5;exitDx=0;exitDy=0;entryX=-0.05;entryY=0.25;entryDx=0;entryDy=0;entryPerimeter=0;" edge="1" parent="1" source="1763DktBf14fpHDiQ_p1-89" target="1763DktBf14fpHDiQ_p1-182">
          <mxGeometry relative="1" as="geometry" />
        </mxCell>
        <mxCell id="1763DktBf14fpHDiQ_p1-184" value="" style="shape=waypoint;sketch=0;fillStyle=solid;size=6;pointerEvents=1;points=[];fillColor=none;resizable=0;rotatable=0;perimeter=centerPerimeter;snapToPoint=1;" vertex="1" parent="1">
          <mxGeometry x="750" y="2910" width="20" height="20" as="geometry" />
        </mxCell>
        <mxCell id="1763DktBf14fpHDiQ_p1-185" style="edgeStyle=orthogonalEdgeStyle;rounded=0;orthogonalLoop=1;jettySize=auto;html=1;exitX=1;exitY=0.5;exitDx=0;exitDy=0;entryX=-0.15;entryY=0.4;entryDx=0;entryDy=0;entryPerimeter=0;" edge="1" parent="1" source="1763DktBf14fpHDiQ_p1-90" target="1763DktBf14fpHDiQ_p1-184">
          <mxGeometry relative="1" as="geometry" />
        </mxCell>
        <mxCell id="1763DktBf14fpHDiQ_p1-186" value="" style="shape=waypoint;sketch=0;fillStyle=solid;size=6;pointerEvents=1;points=[];fillColor=none;resizable=0;rotatable=0;perimeter=centerPerimeter;snapToPoint=1;" vertex="1" parent="1">
          <mxGeometry x="750" y="3070" width="20" height="20" as="geometry" />
        </mxCell>
        <mxCell id="1763DktBf14fpHDiQ_p1-187" style="edgeStyle=orthogonalEdgeStyle;rounded=0;orthogonalLoop=1;jettySize=auto;html=1;exitX=1;exitY=0.5;exitDx=0;exitDy=0;entryX=0;entryY=0.5;entryDx=0;entryDy=0;entryPerimeter=0;" edge="1" parent="1" source="1763DktBf14fpHDiQ_p1-91" target="1763DktBf14fpHDiQ_p1-186">
          <mxGeometry relative="1" as="geometry" />
        </mxCell>
        <mxCell id="1763DktBf14fpHDiQ_p1-188" value="" style="shape=waypoint;sketch=0;fillStyle=solid;size=6;pointerEvents=1;points=[];fillColor=none;resizable=0;rotatable=0;perimeter=centerPerimeter;snapToPoint=1;" vertex="1" parent="1">
          <mxGeometry x="750" y="3230" width="20" height="20" as="geometry" />
        </mxCell>
        <mxCell id="1763DktBf14fpHDiQ_p1-190" value="" style="shape=waypoint;sketch=0;fillStyle=solid;size=6;pointerEvents=1;points=[];fillColor=none;resizable=0;rotatable=0;perimeter=centerPerimeter;snapToPoint=1;" vertex="1" parent="1">
          <mxGeometry x="750" y="4990" width="20" height="20" as="geometry" />
        </mxCell>
        <mxCell id="1763DktBf14fpHDiQ_p1-191" style="edgeStyle=orthogonalEdgeStyle;rounded=0;orthogonalLoop=1;jettySize=auto;html=1;exitX=1;exitY=0.5;exitDx=0;exitDy=0;entryX=-0.1;entryY=0.3;entryDx=0;entryDy=0;entryPerimeter=0;" edge="1" parent="1" source="1763DktBf14fpHDiQ_p1-103" target="1763DktBf14fpHDiQ_p1-190">
          <mxGeometry relative="1" as="geometry" />
        </mxCell>
        <mxCell id="1763DktBf14fpHDiQ_p1-192" value="" style="shape=waypoint;sketch=0;fillStyle=solid;size=6;pointerEvents=1;points=[];fillColor=none;resizable=0;rotatable=0;perimeter=centerPerimeter;snapToPoint=1;" vertex="1" parent="1">
          <mxGeometry x="750" y="4830" width="20" height="20" as="geometry" />
        </mxCell>
        <mxCell id="1763DktBf14fpHDiQ_p1-194" value="" style="shape=waypoint;sketch=0;fillStyle=solid;size=6;pointerEvents=1;points=[];fillColor=none;resizable=0;rotatable=0;perimeter=centerPerimeter;snapToPoint=1;" vertex="1" parent="1">
          <mxGeometry x="750" y="4670" width="20" height="20" as="geometry" />
        </mxCell>
        <mxCell id="1763DktBf14fpHDiQ_p1-195" style="edgeStyle=orthogonalEdgeStyle;rounded=0;orthogonalLoop=1;jettySize=auto;html=1;exitX=1;exitY=0.5;exitDx=0;exitDy=0;entryX=0.1;entryY=0.55;entryDx=0;entryDy=0;entryPerimeter=0;" edge="1" parent="1" source="1763DktBf14fpHDiQ_p1-101" target="1763DktBf14fpHDiQ_p1-194">
          <mxGeometry relative="1" as="geometry" />
        </mxCell>
        <mxCell id="1763DktBf14fpHDiQ_p1-196" value="" style="shape=waypoint;sketch=0;fillStyle=solid;size=6;pointerEvents=1;points=[];fillColor=none;resizable=0;rotatable=0;perimeter=centerPerimeter;snapToPoint=1;" vertex="1" parent="1">
          <mxGeometry x="750" y="4510" width="20" height="20" as="geometry" />
        </mxCell>
        <mxCell id="1763DktBf14fpHDiQ_p1-197" style="edgeStyle=orthogonalEdgeStyle;rounded=0;orthogonalLoop=1;jettySize=auto;html=1;exitX=1;exitY=0.5;exitDx=0;exitDy=0;entryX=0;entryY=0.5;entryDx=0;entryDy=0;entryPerimeter=0;" edge="1" parent="1" source="1763DktBf14fpHDiQ_p1-100" target="1763DktBf14fpHDiQ_p1-196">
          <mxGeometry relative="1" as="geometry" />
        </mxCell>
        <mxCell id="1763DktBf14fpHDiQ_p1-198" value="" style="shape=waypoint;sketch=0;fillStyle=solid;size=6;pointerEvents=1;points=[];fillColor=none;resizable=0;rotatable=0;perimeter=centerPerimeter;snapToPoint=1;" vertex="1" parent="1">
          <mxGeometry x="750" y="4350" width="20" height="20" as="geometry" />
        </mxCell>
        <mxCell id="1763DktBf14fpHDiQ_p1-199" style="edgeStyle=orthogonalEdgeStyle;rounded=0;orthogonalLoop=1;jettySize=auto;html=1;exitX=1;exitY=0.5;exitDx=0;exitDy=0;entryX=-0.1;entryY=0.6;entryDx=0;entryDy=0;entryPerimeter=0;" edge="1" parent="1" source="1763DktBf14fpHDiQ_p1-99" target="1763DktBf14fpHDiQ_p1-198">
          <mxGeometry relative="1" as="geometry" />
        </mxCell>
        <mxCell id="1763DktBf14fpHDiQ_p1-200" value="" style="shape=waypoint;sketch=0;fillStyle=solid;size=6;pointerEvents=1;points=[];fillColor=none;resizable=0;rotatable=0;perimeter=centerPerimeter;snapToPoint=1;" vertex="1" parent="1">
          <mxGeometry x="750" y="4190" width="20" height="20" as="geometry" />
        </mxCell>
        <mxCell id="1763DktBf14fpHDiQ_p1-201" style="edgeStyle=orthogonalEdgeStyle;rounded=0;orthogonalLoop=1;jettySize=auto;html=1;exitX=1;exitY=0.5;exitDx=0;exitDy=0;entryX=0;entryY=0.5;entryDx=0;entryDy=0;entryPerimeter=0;" edge="1" parent="1" source="1763DktBf14fpHDiQ_p1-98" target="1763DktBf14fpHDiQ_p1-200">
          <mxGeometry relative="1" as="geometry" />
        </mxCell>
        <mxCell id="1763DktBf14fpHDiQ_p1-202" value="" style="shape=waypoint;sketch=0;fillStyle=solid;size=6;pointerEvents=1;points=[];fillColor=none;resizable=0;rotatable=0;perimeter=centerPerimeter;snapToPoint=1;" vertex="1" parent="1">
          <mxGeometry x="750" y="4030" width="20" height="20" as="geometry" />
        </mxCell>
        <mxCell id="1763DktBf14fpHDiQ_p1-203" style="edgeStyle=orthogonalEdgeStyle;rounded=0;orthogonalLoop=1;jettySize=auto;html=1;exitX=1;exitY=0.5;exitDx=0;exitDy=0;entryX=0;entryY=0.5;entryDx=0;entryDy=0;entryPerimeter=0;" edge="1" parent="1" source="1763DktBf14fpHDiQ_p1-97" target="1763DktBf14fpHDiQ_p1-202">
          <mxGeometry relative="1" as="geometry" />
        </mxCell>
        <mxCell id="1763DktBf14fpHDiQ_p1-204" value="" style="shape=waypoint;sketch=0;fillStyle=solid;size=6;pointerEvents=1;points=[];fillColor=none;resizable=0;rotatable=0;perimeter=centerPerimeter;snapToPoint=1;" vertex="1" parent="1">
          <mxGeometry x="750" y="3870" width="20" height="20" as="geometry" />
        </mxCell>
        <mxCell id="1763DktBf14fpHDiQ_p1-205" style="edgeStyle=orthogonalEdgeStyle;rounded=0;orthogonalLoop=1;jettySize=auto;html=1;exitX=1;exitY=0.5;exitDx=0;exitDy=0;entryX=0;entryY=0.4;entryDx=0;entryDy=0;entryPerimeter=0;" edge="1" parent="1" source="1763DktBf14fpHDiQ_p1-96" target="1763DktBf14fpHDiQ_p1-204">
          <mxGeometry relative="1" as="geometry" />
        </mxCell>
        <mxCell id="1763DktBf14fpHDiQ_p1-206" value="" style="shape=waypoint;sketch=0;fillStyle=solid;size=6;pointerEvents=1;points=[];fillColor=none;resizable=0;rotatable=0;perimeter=centerPerimeter;snapToPoint=1;" vertex="1" parent="1">
          <mxGeometry x="750" y="3710" width="20" height="20" as="geometry" />
        </mxCell>
        <mxCell id="1763DktBf14fpHDiQ_p1-207" style="edgeStyle=orthogonalEdgeStyle;rounded=0;orthogonalLoop=1;jettySize=auto;html=1;exitX=1;exitY=0.5;exitDx=0;exitDy=0;entryX=0.1;entryY=0.55;entryDx=0;entryDy=0;entryPerimeter=0;" edge="1" parent="1" source="1763DktBf14fpHDiQ_p1-95" target="1763DktBf14fpHDiQ_p1-206">
          <mxGeometry relative="1" as="geometry" />
        </mxCell>
        <mxCell id="1763DktBf14fpHDiQ_p1-208" value="" style="shape=waypoint;sketch=0;fillStyle=solid;size=6;pointerEvents=1;points=[];fillColor=none;resizable=0;rotatable=0;perimeter=centerPerimeter;snapToPoint=1;" vertex="1" parent="1">
          <mxGeometry x="750" y="3550" width="20" height="20" as="geometry" />
        </mxCell>
        <mxCell id="1763DktBf14fpHDiQ_p1-209" style="edgeStyle=orthogonalEdgeStyle;rounded=0;orthogonalLoop=1;jettySize=auto;html=1;exitX=1;exitY=0.5;exitDx=0;exitDy=0;entryX=-0.1;entryY=0.45;entryDx=0;entryDy=0;entryPerimeter=0;" edge="1" parent="1" source="1763DktBf14fpHDiQ_p1-94" target="1763DktBf14fpHDiQ_p1-208">
          <mxGeometry relative="1" as="geometry" />
        </mxCell>
        <mxCell id="1763DktBf14fpHDiQ_p1-210" value="" style="shape=waypoint;sketch=0;fillStyle=solid;size=6;pointerEvents=1;points=[];fillColor=none;resizable=0;rotatable=0;perimeter=centerPerimeter;snapToPoint=1;" vertex="1" parent="1">
          <mxGeometry x="750" y="3390" width="20" height="20" as="geometry" />
        </mxCell>
        <mxCell id="1763DktBf14fpHDiQ_p1-211" style="edgeStyle=orthogonalEdgeStyle;rounded=0;orthogonalLoop=1;jettySize=auto;html=1;exitX=1;exitY=0.5;exitDx=0;exitDy=0;entryX=0;entryY=0.5;entryDx=0;entryDy=0;entryPerimeter=0;" edge="1" parent="1" source="1763DktBf14fpHDiQ_p1-93" target="1763DktBf14fpHDiQ_p1-210">
          <mxGeometry relative="1" as="geometry" />
        </mxCell>
      </root>
    </mxGraphModel>
  </diagram>
</mxfile>
